<svg width="91" height="32" viewBox="0 0 91 32" fill="none" xmlns="http://www.w3.org/2000/svg">
    <path d="M12.5 31.9998C12.4938 31.9999 12.4877 32 12.4817 32C12.4524 32 12.4195 31.9968 12.3831 31.9906C10.5756 31.767 1.38346 27.5405 0.165453 16.1115C0.0577525 15.4254 0 14.7291 0 14.0253L0.0219755 13.1626C-0.0464338 8.59684 0.0580385 6.1427 0.15509 4.89831C0.210848 4.18339 0.698665 3.61548 1.37447 3.3885L10.5195 0.316864C11.1623 0.100958 11.8316 -0.00452837 12.5 0.00014894C13.1684 -0.00452837 13.8377 0.100958 14.4805 0.316864L23.6255 3.3885C24.3013 3.61548 24.7892 4.18339 24.8449 4.89831C24.942 6.1427 25.0464 8.59685 24.978 13.1626L25 14.0253C25 14.7291 24.9422 15.4254 24.8345 16.1115C23.6165 27.5405 14.4244 31.767 12.6169 31.9906C12.5805 31.9968 12.5476 32 12.5183 32C12.5123 32 12.5062 31.9999 12.5 31.9998Z" fill="#20DF9E"/>
    <path fill-rule="evenodd" clip-rule="evenodd" d="M12.5 30.4901C12.7562 30.4364 13.4389 30.2182 14.4104 29.6993C15.4395 29.1496 16.6862 28.3182 17.9199 27.1596C20.3745 24.8546 22.7775 21.2588 23.343 15.9525C23.3456 15.9279 23.3489 15.9033 23.3527 15.8788C23.4481 15.2714 23.499 14.6592 23.5 14.0438L23.4785 13.2008C23.478 13.1806 23.4779 13.1604 23.4782 13.1402C23.5462 8.60039 23.4416 6.19641 23.3495 5.01494C23.3462 4.97278 23.3328 4.94188 23.3088 4.9127C23.2821 4.88027 23.2316 4.83854 23.1479 4.81043L14.0029 1.7388C13.5183 1.57604 13.0141 1.49659 12.5105 1.50011H12.4895C11.9859 1.49659 11.4817 1.57604 10.9971 1.7388L1.85206 4.81043C1.76837 4.83854 1.71786 4.88027 1.69122 4.9127C1.66724 4.94188 1.65384 4.97278 1.65055 5.01495C1.5584 6.19641 1.45379 8.60039 1.52181 13.1401C1.52211 13.1604 1.522 13.1806 1.52149 13.2008L1.50002 14.0438C1.50102 14.6592 1.55195 15.2714 1.64731 15.8789C1.65115 15.9033 1.65438 15.9279 1.65701 15.9525C2.22251 21.2588 4.62552 24.8546 7.08007 27.1596C8.31381 28.3182 9.56055 29.1496 10.5896 29.6993C11.5611 30.2182 12.2438 30.4364 12.5 30.4901ZM0 14.0253L0.0219755 13.1626C-0.0464338 8.59684 0.0580385 6.1427 0.15509 4.89831C0.210848 4.18339 0.698665 3.61548 1.37447 3.3885L10.5195 0.316864C11.1623 0.100958 11.8316 -0.00452837 12.5 0.00014894C13.1684 -0.00452837 13.8377 0.100958 14.4805 0.316864L23.6255 3.3885C24.3013 3.61548 24.7892 4.18339 24.8449 4.89831C24.942 6.1427 25.0464 8.59685 24.978 13.1626L25 14.0253C25 14.7291 24.9422 15.4254 24.8345 16.1115C23.6165 27.5405 14.4244 31.767 12.6169 31.9906C12.5805 31.9968 12.5476 32 12.5183 32C12.5123 32 12.5062 31.9999 12.5 31.9998C12.4938 31.9999 12.4877 32 12.4817 32C12.4524 32 12.4195 31.9968 12.3831 31.9906C10.5756 31.767 1.38346 27.5405 0.165453 16.1115C0.0577525 15.4254 0 14.7291 0 14.0253Z" fill="#20A690"/>
    <path opacity="0.1" d="M12.4993 31.9998C12.4993 26 12.4042 6.50661 12.4993 0.00014894C13.1677 -0.00452837 13.8369 0.100958 14.4797 0.316864L23.6248 3.3885C24.3006 3.61548 24.7884 4.18339 24.8442 4.89831C24.9412 6.1427 25.0457 8.59685 24.9773 13.1626L24.9993 14.0253C24.9993 14.7291 24.9415 15.4254 24.8338 16.1115C23.6158 27.5405 14.4236 31.767 12.6161 31.9906C12.5797 31.9968 12.5468 32 12.5175 32C12.5116 32 12.5055 31.9999 12.4993 31.9998Z" fill="black"/>
    <circle cx="12.5" cy="16.5" r="9" fill="#18AA79"/>
    <circle cx="12.5" cy="15" r="9" fill="#4FFFA8"/>
    <path d="M5 14.9982C4.99972 14.3343 5.08829 13.6733 5.26339 13.0325C5.55193 13.6499 5.97099 14.1832 6.256 14.8166C6.62435 15.6308 7.61342 15.405 8.05017 16.1184C8.43778 16.7518 8.02383 17.5527 8.31395 18.2154C8.52466 18.6964 9.02155 18.8015 9.36435 19.1531C9.71461 19.5079 9.70714 19.9939 9.76061 20.4566C9.82094 21.0001 9.91879 21.5389 10.0535 22.069C10.0535 22.0729 10.0535 22.0772 10.0566 22.0812C7.11495 21.0543 5 18.2674 5 14.9982ZM12.5478 22.5C12.1263 22.4999 11.7055 22.4648 11.2898 22.3953C11.2941 22.2894 11.2961 22.1906 11.3067 22.1218C11.4022 21.5005 11.7152 20.893 12.1374 20.428C12.5545 19.9693 13.1261 19.6591 13.4783 19.1387C13.8234 18.6307 13.9268 17.947 13.7845 17.3535C13.575 16.4767 12.3764 16.1841 11.7301 15.7086C11.3586 15.4351 11.028 15.0123 10.5402 14.9779C10.3153 14.9623 10.127 15.0104 9.90409 14.9533C9.69967 14.9006 9.53928 14.7912 9.3215 14.8197C8.91463 14.8728 8.65792 15.305 8.22078 15.2463C7.80605 15.1913 7.37873 14.7087 7.28438 14.3161C7.16331 13.8112 7.56507 13.6475 7.99553 13.6026C8.17518 13.5838 8.37685 13.5635 8.54942 13.6292C8.77664 13.7128 8.88396 13.9339 9.08799 14.0457C9.47049 14.2543 9.54793 13.921 9.48936 13.5835C9.40169 13.0779 9.29948 12.872 9.75314 12.5238C10.0676 12.2839 10.3365 12.1105 10.2862 11.6795C10.2563 11.4263 10.1168 11.3118 10.2469 11.0598C10.3456 10.868 10.6164 10.6949 10.7929 10.5804C11.2485 10.285 12.7447 10.3069 12.1334 9.48015C11.9538 9.23752 11.6224 8.80382 11.3079 8.74443C10.9148 8.67059 10.7402 9.10663 10.4662 9.29886C10.1832 9.49773 9.63206 9.72357 9.34862 9.41607C8.9673 9.00231 9.6014 8.86673 9.74174 8.5776C9.8066 8.4428 9.74174 8.25565 9.63245 8.07943C9.77424 8.02004 9.91838 7.96495 10.0649 7.91416C10.1567 7.98156 10.2656 8.02215 10.3794 8.03137C10.6424 8.04857 10.8904 7.90713 11.12 8.08529C11.3747 8.28065 11.5583 8.52758 11.8964 8.58854C12.2235 8.64753 12.5698 8.45804 12.6508 8.12515C12.6999 7.92276 12.6508 7.70903 12.6036 7.5C14.0739 7.50841 15.5092 7.94604 16.7313 8.7585C16.6527 8.7288 16.5587 8.73232 16.4428 8.78585C16.2041 8.89603 15.8661 9.17656 15.8381 9.45475C15.8063 9.77045 16.2749 9.815 16.4974 9.815C16.8315 9.815 17.17 9.66652 17.0623 9.28284C17.0155 9.11639 16.9518 8.94331 16.8492 8.8386C17.0959 9.0087 17.3322 9.19318 17.5568 9.39107C17.5533 9.39458 17.5498 9.39771 17.5462 9.40162C17.3198 9.63605 17.0568 9.82164 16.9019 10.1069C16.7926 10.3077 16.6696 10.403 16.4483 10.455C16.3264 10.4835 16.1872 10.4941 16.085 10.5753C15.8004 10.798 15.9624 11.3333 16.232 11.4939C16.5729 11.6967 17.0784 11.6014 17.3355 11.3118C17.5364 11.0852 17.6547 10.6918 18.016 10.6922C18.175 10.6918 18.3278 10.7537 18.4413 10.8645C18.5907 11.0184 18.5612 11.1622 18.5931 11.3544C18.6493 11.6959 18.9524 11.5107 19.1368 11.3384C19.2712 11.5761 19.3924 11.8209 19.5 12.0718C19.2972 12.3621 19.136 12.6786 18.6481 12.3402C18.356 12.1374 18.1764 11.8432 17.8096 11.7518C17.4892 11.6736 17.161 11.7549 16.8445 11.8092C16.4848 11.8713 16.0583 11.8987 15.7855 12.1695C15.5217 12.4305 15.3821 12.7798 15.1014 13.0419C14.5586 13.5499 14.3294 14.1043 14.6808 14.8224C15.0189 15.5128 15.7261 15.8875 16.4891 15.8383C17.2388 15.7887 18.0176 15.3565 17.9959 16.4392C17.9881 16.8225 18.0687 17.0878 18.187 17.4437C18.2967 17.7719 18.2892 18.09 18.3144 18.4287C18.3383 18.8254 18.4007 19.2189 18.5007 19.6036C17.7961 20.5053 16.8934 21.235 15.8617 21.737C14.83 22.239 13.6965 22.4999 12.5478 22.5Z" fill="#00B7FF"/>
    <g opacity="0.1">
        <path d="M9.50005 21.0001C14.4706 21.0001 18.5001 16.9706 18.5001 12.0001C18.5001 10.2836 18.0195 8.6793 17.1857 7.31445C19.7731 8.89528 21.5001 11.746 21.5001 15.0001C21.5001 19.9706 17.4706 24.0001 12.5001 24.0001C9.24599 24.0001 6.39528 22.2731 4.81445 19.6857C6.1793 20.5195 7.78356 21.0001 9.50005 21.0001Z" fill="black"/>
    </g>
    <path fill-rule="evenodd" clip-rule="evenodd" d="M12.5 22.25C16.5041 22.25 19.75 19.0041 19.75 15C19.75 10.9959 16.5041 7.75 12.5 7.75C8.49594 7.75 5.25 10.9959 5.25 15C5.25 19.0041 8.49594 22.25 12.5 22.25ZM12.5 24C17.4706 24 21.5 19.9706 21.5 15C21.5 10.0294 17.4706 6 12.5 6C7.52944 6 3.5 10.0294 3.5 15C3.5 19.9706 7.52944 24 12.5 24Z" fill="#342B53"/>
    <g filter="url(#filter0_d_2471_6951)">
        <circle cx="20.25" cy="10.75" r="3.75" fill="#FF5E5C"/>
        <path fill-rule="evenodd" clip-rule="evenodd" d="M21.3803 10.186H21.6627C21.7723 10.186 21.8608 10.2745 21.8608 10.3841V12.3019C21.8608 12.4115 21.7723 12.5 21.6627 12.5H18.8387C18.7292 12.5 18.6406 12.4115 18.6406 12.3019V10.3841C18.6406 10.2745 18.7291 10.186 18.8387 10.186H19.1211V9.62961C19.1211 9.00579 19.6269 8.5 20.2507 8.5C20.8746 8.5 21.3803 9.0058 21.3803 9.62961V10.186ZM19.6859 10.186H20.8155L20.8155 9.62961C20.8155 9.31772 20.5626 9.06481 20.2507 9.06481C19.9388 9.06481 19.6859 9.31769 19.6859 9.62961V10.186ZM20.2481 11.7259C20.4897 11.7259 20.6856 11.53 20.6856 11.2884C20.6856 11.0468 20.4897 10.8509 20.2481 10.8509C20.0065 10.8509 19.8106 11.0468 19.8106 11.2884C19.8106 11.53 20.0065 11.7259 20.2481 11.7259Z" fill="white"/>
    </g>
    <path d="M48.358 10.148L43.912 23H41.446L37 10.148H39.358L41.95 18.014C42.034 18.23 42.118 18.512 42.202 18.86C42.298 19.196 42.388 19.544 42.472 19.904C42.568 20.252 42.64 20.564 42.688 20.84C42.724 20.564 42.784 20.252 42.868 19.904C42.964 19.544 43.06 19.196 43.156 18.86C43.252 18.512 43.336 18.23 43.408 18.014L46 10.148H48.358ZM52.3859 13.064C53.2619 13.064 54.0119 13.244 54.6359 13.604C55.2719 13.952 55.7639 14.456 56.1119 15.116C56.4599 15.764 56.6339 16.556 56.6339 17.492V18.644H50.1899C50.2139 19.532 50.4599 20.222 50.9279 20.714C51.3959 21.194 52.0439 21.434 52.8719 21.434C53.5079 21.434 54.0719 21.374 54.5639 21.254C55.0679 21.122 55.5839 20.936 56.1119 20.696V22.514C55.6319 22.742 55.1339 22.91 54.6179 23.018C54.1019 23.126 53.4839 23.18 52.7639 23.18C51.8159 23.18 50.9699 23 50.2259 22.64C49.4939 22.268 48.9179 21.71 48.4979 20.966C48.0899 20.222 47.8859 19.298 47.8859 18.194C47.8859 17.078 48.0719 16.142 48.4439 15.386C48.8279 14.618 49.3559 14.042 50.0279 13.658C50.6999 13.262 51.4859 13.064 52.3859 13.064ZM52.3859 14.738C51.7859 14.738 51.2939 14.936 50.9099 15.332C50.5379 15.716 50.3159 16.292 50.2439 17.06H54.4379C54.4379 16.604 54.3599 16.202 54.2039 15.854C54.0599 15.506 53.8379 15.236 53.5379 15.044C53.2379 14.84 52.8539 14.738 52.3859 14.738ZM61.8449 13.064C62.7209 13.064 63.4709 13.244 64.0949 13.604C64.7309 13.952 65.2229 14.456 65.5709 15.116C65.9189 15.764 66.0929 16.556 66.0929 17.492V18.644H59.6489C59.6729 19.532 59.9189 20.222 60.3869 20.714C60.8549 21.194 61.5029 21.434 62.3309 21.434C62.9669 21.434 63.5309 21.374 64.0229 21.254C64.5269 21.122 65.0429 20.936 65.5709 20.696V22.514C65.0909 22.742 64.5929 22.91 64.0769 23.018C63.5609 23.126 62.9429 23.18 62.2229 23.18C61.2749 23.18 60.4289 23 59.6849 22.64C58.9529 22.268 58.3769 21.71 57.9569 20.966C57.5489 20.222 57.3449 19.298 57.3449 18.194C57.3449 17.078 57.5309 16.142 57.9029 15.386C58.2869 14.618 58.8149 14.042 59.4869 13.658C60.1589 13.262 60.9449 13.064 61.8449 13.064ZM61.8449 14.738C61.2449 14.738 60.7529 14.936 60.3689 15.332C59.9969 15.716 59.7749 16.292 59.7029 17.06H63.8969C63.8969 16.604 63.8189 16.202 63.6629 15.854C63.5189 15.506 63.2969 15.236 62.9969 15.044C62.6969 14.84 62.3129 14.738 61.8449 14.738ZM71.4299 10.148C73.0979 10.148 74.3099 10.496 75.0659 11.192C75.8339 11.888 76.2179 12.848 76.2179 14.072C76.2179 14.624 76.1339 15.152 75.9659 15.656C75.7979 16.148 75.5159 16.592 75.1199 16.988C74.7239 17.384 74.2019 17.696 73.5539 17.924C72.9179 18.152 72.1259 18.266 71.1779 18.266H69.8999V23H67.5959V10.148H71.4299ZM71.2859 12.056H69.8999V16.358H70.9439C71.5679 16.358 72.0959 16.286 72.5279 16.142C72.9719 15.986 73.3079 15.746 73.5359 15.422C73.7639 15.098 73.8779 14.678 73.8779 14.162C73.8779 13.454 73.6679 12.926 73.2479 12.578C72.8279 12.23 72.1739 12.056 71.2859 12.056ZM88.6664 23H85.8044L79.7204 12.92H79.6484C79.6604 13.184 79.6724 13.466 79.6844 13.766C79.7084 14.054 79.7264 14.354 79.7384 14.666C79.7504 14.966 79.7624 15.272 79.7744 15.584C79.7864 15.896 79.7984 16.208 79.8104 16.52V23H77.7404V10.148H80.5844L86.6504 20.156H86.7044C86.6924 19.916 86.6804 19.658 86.6684 19.382C86.6564 19.094 86.6444 18.8 86.6324 18.5C86.6324 18.2 86.6264 17.894 86.6144 17.582C86.6024 17.27 86.5904 16.97 86.5784 16.682V10.148H88.6664V23Z" fill="#303C48"/>
    <defs>
        <filter id="filter0_d_2471_6951" x="14.5" y="5" width="11.5" height="11.5" filterUnits="userSpaceOnUse" color-interpolation-filters="sRGB">
            <feFlood flood-opacity="0" result="BackgroundImageFix"/>
            <feColorMatrix in="SourceAlpha" type="matrix" values="0 0 0 0 0 0 0 0 0 0 0 0 0 0 0 0 0 0 127 0" result="hardAlpha"/>
            <feOffset/>
            <feGaussianBlur stdDeviation="1"/>
            <feComposite in2="hardAlpha" operator="out"/>
            <feColorMatrix type="matrix" values="0 0 0 0 0 0 0 0 0 0 0 0 0 0 0 0 0 0 0.2 0"/>
            <feBlend mode="normal" in2="BackgroundImageFix" result="effect1_dropShadow_2471_6951"/>
            <feBlend mode="normal" in="SourceGraphic" in2="effect1_dropShadow_2471_6951" result="shape"/>
        </filter>
    </defs>
</svg>
